<svg width="18" height="19" viewBox="0 0 18 19" fill="none" xmlns="http://www.w3.org/2000/svg">
<path d="M18 9.14598C18 4.14998 13.97 0.0999756 9.00001 0.0999756C4.03001 0.0999756 9.31527e-06 4.14998 9.31527e-06 9.14598C-0.00307406 11.2931 0.759387 13.3711 2.15048 15.0067C3.54158 16.6423 5.47019 17.7284 7.59001 18.07V11.694H5.39501V9.13998H7.58801V7.25998C7.58801 5.07398 8.91601 3.88498 10.855 3.88498C11.785 3.88498 12.583 3.95498 12.815 3.98498V6.26998H11.47C10.415 6.26998 10.21 6.77298 10.21 7.51198V9.14198H12.727L12.397 11.696H10.21V18.1C14.608 17.503 18 13.727 18 9.14598Z" fill="white"/>
</svg>
