<svg width="16" height="15" viewBox="0 0 16 15" fill="none" xmlns="http://www.w3.org/2000/svg">
<g filter="url(#filter0_d_13_91)">
<path fill-rule="evenodd" clip-rule="evenodd" d="M4.99994 2.24999C4.99994 2.4489 4.92093 2.63967 4.78027 2.78032C4.63962 2.92097 4.44886 2.99999 4.24994 2.99999C4.05103 2.99999 3.86027 2.92097 3.71961 2.78032C3.57896 2.63967 3.49994 2.4489 3.49994 2.24999C3.49994 2.05107 3.57896 1.86031 3.71961 1.71966C3.86027 1.579 4.05103 1.49999 4.24994 1.49999C4.44886 1.49999 4.63962 1.579 4.78027 1.71966C4.92093 1.86031 4.99994 2.05107 4.99994 2.24999ZM4.99994 4.37199C5.50036 4.19507 5.92211 3.84694 6.19067 3.38913C6.45923 2.93132 6.55729 2.39331 6.46754 1.87019C6.37779 1.34707 6.10599 0.872511 5.70019 0.530411C5.29439 0.188301 4.78071 0.000671387 4.24994 0.000671387C3.71918 0.000671387 3.2055 0.188301 2.7997 0.530411C2.3939 0.872511 2.1221 1.34707 2.03235 1.87019C1.94259 2.39331 2.04066 2.93132 2.30922 3.38913C2.57778 3.84694 2.99953 4.19507 3.49994 4.37199V5.24999C3.49994 5.84672 3.737 6.41902 4.15895 6.84098C4.58091 7.26293 5.15321 7.49999 5.74994 7.49999H7.24994V9.62798C6.74926 9.80488 6.32724 10.1532 6.05849 10.6112C5.78975 11.0692 5.69158 11.6075 5.78133 12.1309C5.87109 12.6543 6.143 13.1291 6.54899 13.4714C6.95498 13.8136 7.46891 14.0014 7.99994 14.0014C8.53098 14.0014 9.04491 13.8136 9.4509 13.4714C9.85689 13.1291 10.1288 12.6543 10.2185 12.1309C10.3083 11.6075 10.2101 11.0692 9.9414 10.6112C9.67265 10.1532 9.25063 9.80488 8.74994 9.62798V7.49999H10.2499C10.8466 7.49999 11.4189 7.26293 11.8409 6.84098C12.2629 6.41902 12.4999 5.84672 12.4999 5.24999V4.37199C13.0003 4.19507 13.4221 3.84694 13.6906 3.38913C13.9592 2.93132 14.0573 2.39331 13.9675 1.87019C13.8777 1.34707 13.606 0.872511 13.2001 0.530411C12.7943 0.188301 12.2807 0.000671387 11.7499 0.000671387C11.2191 0.000671387 10.7055 0.188301 10.2997 0.530411C9.8939 0.872511 9.6221 1.34707 9.53235 1.87019C9.44259 2.39331 9.54066 2.93132 9.80922 3.38913C10.0777 3.84694 10.4995 4.19507 10.9999 4.37199V5.24999C10.9999 5.4489 10.9209 5.63967 10.7802 5.78032C10.6396 5.92097 10.4488 5.99999 10.2499 5.99999H5.74994C5.55103 5.99999 5.36027 5.92097 5.21961 5.78032C5.07896 5.63967 4.99994 5.4489 4.99994 5.24999V4.37199ZM8.74994 11.75C8.74994 11.9489 8.67093 12.1397 8.53027 12.2803C8.38962 12.421 8.19886 12.5 7.99994 12.5C7.80103 12.5 7.61027 12.421 7.46961 12.2803C7.32896 12.1397 7.24994 11.9489 7.24994 11.75C7.24994 11.5511 7.32896 11.3603 7.46961 11.2197C7.61027 11.079 7.80103 11 7.99994 11C8.19886 11 8.38962 11.079 8.53027 11.2197C8.67093 11.3603 8.74994 11.5511 8.74994 11.75ZM11.7499 2.99999C11.9488 2.99999 12.1396 2.92097 12.2802 2.78032C12.4209 2.63967 12.4999 2.4489 12.4999 2.24999C12.4999 2.05107 12.4209 1.86031 12.2802 1.71966C12.1396 1.579 11.9488 1.49999 11.7499 1.49999C11.551 1.49999 11.3602 1.579 11.2196 1.71966C11.0789 1.86031 10.9999 2.05107 10.9999 2.24999C10.9999 2.4489 11.0789 2.63967 11.2196 2.78032C11.3602 2.92097 11.551 2.99999 11.7499 2.99999Z" fill="#909296"/>
</g>
<defs>
<filter id="filter0_d_13_91" x="-2.00006" y="0.000671387" width="20" height="22.0007" filterUnits="userSpaceOnUse" color-interpolation-filters="sRGB">
<feFlood flood-opacity="0" result="BackgroundImageFix"/>
<feColorMatrix in="SourceAlpha" type="matrix" values="0 0 0 0 0 0 0 0 0 0 0 0 0 0 0 0 0 0 127 0" result="hardAlpha"/>
<feOffset dy="4"/>
<feGaussianBlur stdDeviation="2"/>
<feComposite in2="hardAlpha" operator="out"/>
<feColorMatrix type="matrix" values="0 0 0 0 0 0 0 0 0 0 0 0 0 0 0 0 0 0 0.25 0"/>
<feBlend mode="normal" in2="BackgroundImageFix" result="effect1_dropShadow_13_91"/>
<feBlend mode="normal" in="SourceGraphic" in2="effect1_dropShadow_13_91" result="shape"/>
</filter>
</defs>
</svg>
