<svg width="38" height="19" viewBox="0 0 38 19" fill="none" xmlns="http://www.w3.org/2000/svg">
<path d="M9 15.5C9.82843 15.5 10.5 14.8284 10.5 14C10.5 13.1716 9.82843 12.5 9 12.5C8.17157 12.5 7.5 13.1716 7.5 14C7.5 14.8284 8.17157 15.5 9 15.5Z" stroke="#909296" stroke-width="1.5" stroke-linecap="round" stroke-linejoin="round"/>
<path d="M5.25 6.5C6.07843 6.5 6.75 5.82843 6.75 5C6.75 4.17157 6.07843 3.5 5.25 3.5C4.42157 3.5 3.75 4.17157 3.75 5C3.75 5.82843 4.42157 6.5 5.25 6.5Z" stroke="#909296" stroke-width="1.5" stroke-linecap="round" stroke-linejoin="round"/>
<path d="M12.75 6.5C13.5784 6.5 14.25 5.82843 14.25 5C14.25 4.17157 13.5784 3.5 12.75 3.5C11.9216 3.5 11.25 4.17157 11.25 5C11.25 5.82843 11.9216 6.5 12.75 6.5Z" stroke="#909296" stroke-width="1.5" stroke-linecap="round" stroke-linejoin="round"/>
<path d="M5.25 6.5V8C5.25 8.39782 5.40804 8.77936 5.68934 9.06066C5.97064 9.34196 6.35218 9.5 6.75 9.5H11.25C11.6478 9.5 12.0294 9.34196 12.3107 9.06066C12.592 8.77936 12.75 8.39782 12.75 8V6.5" stroke="#909296" stroke-width="1.5" stroke-linecap="round" stroke-linejoin="round"/>
<path d="M9 9.5V12.5" stroke="#909296" stroke-width="1.5" stroke-linecap="round" stroke-linejoin="round"/>
<path d="M25.396 13V6.76L23.812 7.984L22.768 6.556L25.564 4.504H27.412V13H25.396ZM36.8258 10.576C36.8258 11.024 36.7378 11.416 36.5618 11.752C36.3858 12.08 36.1498 12.356 35.8538 12.58C35.5658 12.796 35.2258 12.956 34.8338 13.06C34.4498 13.172 34.0498 13.228 33.6338 13.228C33.2098 13.228 32.8058 13.172 32.4218 13.06C32.0378 12.956 31.6978 12.796 31.4018 12.58C31.1138 12.364 30.8818 12.092 30.7058 11.764C30.5298 11.428 30.4418 11.036 30.4418 10.588C30.4418 10.332 30.4818 10.096 30.5618 9.88C30.6418 9.656 30.7498 9.46 30.8858 9.292C31.0298 9.116 31.1938 8.968 31.3778 8.848C31.5618 8.72 31.7578 8.624 31.9658 8.56V8.536C31.5978 8.4 31.2898 8.18 31.0418 7.876C30.7938 7.564 30.6698 7.172 30.6698 6.7C30.6698 6.308 30.7498 5.96 30.9098 5.656C31.0698 5.352 31.2858 5.1 31.5578 4.9C31.8298 4.692 32.1458 4.536 32.5058 4.432C32.8658 4.328 33.2418 4.276 33.6338 4.276C34.0258 4.276 34.3978 4.328 34.7498 4.432C35.1098 4.528 35.4258 4.676 35.6978 4.876C35.9698 5.076 36.1858 5.328 36.3458 5.632C36.5138 5.928 36.5978 6.272 36.5978 6.664C36.5978 7.136 36.4778 7.532 36.2378 7.852C35.9978 8.172 35.6858 8.396 35.3018 8.524V8.56C35.5178 8.624 35.7178 8.72 35.9018 8.848C36.0858 8.968 36.2458 9.116 36.3818 9.292C36.5178 9.46 36.6258 9.656 36.7058 9.88C36.7858 10.096 36.8258 10.328 36.8258 10.576ZM34.6538 6.808C34.6538 6.528 34.5538 6.296 34.3538 6.112C34.1538 5.928 33.9138 5.836 33.6338 5.836C33.3298 5.836 33.0858 5.928 32.9018 6.112C32.7178 6.296 32.6258 6.528 32.6258 6.808C32.6258 7.08 32.7138 7.316 32.8898 7.516C33.0738 7.716 33.3218 7.816 33.6338 7.816C33.9298 7.816 34.1738 7.716 34.3658 7.516C34.5578 7.316 34.6538 7.08 34.6538 6.808ZM34.8098 10.504C34.8098 10.176 34.6978 9.904 34.4738 9.688C34.2578 9.464 33.9778 9.352 33.6338 9.352C33.2818 9.352 32.9938 9.46 32.7698 9.676C32.5538 9.892 32.4458 10.168 32.4458 10.504C32.4458 10.848 32.5538 11.124 32.7698 11.332C32.9938 11.532 33.2818 11.632 33.6338 11.632C33.9858 11.632 34.2698 11.532 34.4858 11.332C34.7018 11.124 34.8098 10.848 34.8098 10.504Z" fill="#909296"/>
</svg>
