<svg width="38" height="19" viewBox="0 0 38 19" fill="none" xmlns="http://www.w3.org/2000/svg">
<path d="M9 15.5C9.82843 15.5 10.5 14.8284 10.5 14C10.5 13.1716 9.82843 12.5 9 12.5C8.17157 12.5 7.5 13.1716 7.5 14C7.5 14.8284 8.17157 15.5 9 15.5Z" stroke="#909296" stroke-width="1.5" stroke-linecap="round" stroke-linejoin="round"/>
<path d="M5.25 6.5C6.07843 6.5 6.75 5.82843 6.75 5C6.75 4.17157 6.07843 3.5 5.25 3.5C4.42157 3.5 3.75 4.17157 3.75 5C3.75 5.82843 4.42157 6.5 5.25 6.5Z" stroke="#909296" stroke-width="1.5" stroke-linecap="round" stroke-linejoin="round"/>
<path d="M12.75 6.5C13.5784 6.5 14.25 5.82843 14.25 5C14.25 4.17157 13.5784 3.5 12.75 3.5C11.9216 3.5 11.25 4.17157 11.25 5C11.25 5.82843 11.9216 6.5 12.75 6.5Z" stroke="#909296" stroke-width="1.5" stroke-linecap="round" stroke-linejoin="round"/>
<path d="M5.25 6.5V8C5.25 8.39782 5.40804 8.77936 5.68934 9.06066C5.97064 9.34196 6.35218 9.5 6.75 9.5H11.25C11.6478 9.5 12.0294 9.34196 12.3107 9.06066C12.592 8.77936 12.75 8.39782 12.75 8V6.5" stroke="#909296" stroke-width="1.5" stroke-linecap="round" stroke-linejoin="round"/>
<path d="M9 9.5V12.5" stroke="#909296" stroke-width="1.5" stroke-linecap="round" stroke-linejoin="round"/>
</svg>
