<svg width="12" height="15" viewBox="0 0 12 15" fill="none" xmlns="http://www.w3.org/2000/svg">
<path fill-rule="evenodd" clip-rule="evenodd" d="M2.99994 2.24999C2.99994 2.4489 2.92093 2.63967 2.78027 2.78032C2.63962 2.92097 2.44886 2.99999 2.24994 2.99999C2.05103 2.99999 1.86027 2.92097 1.71961 2.78032C1.57896 2.63967 1.49994 2.4489 1.49994 2.24999C1.49994 2.05107 1.57896 1.86031 1.71961 1.71966C1.86027 1.579 2.05103 1.49999 2.24994 1.49999C2.44886 1.49999 2.63962 1.579 2.78027 1.71966C2.92093 1.86031 2.99994 2.05107 2.99994 2.24999ZM2.99994 4.37199C3.50036 4.19507 3.92211 3.84694 4.19067 3.38913C4.45923 2.93132 4.55729 2.39331 4.46754 1.87019C4.37779 1.34707 4.10599 0.872511 3.70019 0.530411C3.29439 0.188301 2.78071 0.000671387 2.24994 0.000671387C1.71918 0.000671387 1.2055 0.188301 0.7997 0.530411C0.3939 0.872511 0.1221 1.34707 0.0323503 1.87019C-0.0574097 2.39331 0.0406604 2.93132 0.30922 3.38913C0.57778 3.84694 0.99953 4.19507 1.49994 4.37199V5.24999C1.49994 5.84672 1.737 6.41902 2.15895 6.84098C2.58091 7.26293 3.15321 7.49999 3.74994 7.49999H5.24994V9.62798C4.74926 9.80488 4.32724 10.1532 4.05849 10.6112C3.78975 11.0692 3.69158 11.6075 3.78133 12.1309C3.87109 12.6543 4.143 13.1291 4.54899 13.4714C4.95498 13.8136 5.46891 14.0014 5.99994 14.0014C6.53098 14.0014 7.04491 13.8136 7.4509 13.4714C7.85689 13.1291 8.12884 12.6543 8.21854 12.1309C8.30834 11.6075 8.21014 11.0692 7.9414 10.6112C7.67265 10.1532 7.25063 9.80488 6.74994 9.62798V7.49999H8.24994C8.84664 7.49999 9.41894 7.26293 9.84094 6.84098C10.2629 6.41902 10.4999 5.84672 10.4999 5.24999V4.37199C11.0003 4.19507 11.4221 3.84694 11.6906 3.38913C11.9592 2.93132 12.0573 2.39331 11.9675 1.87019C11.8777 1.34707 11.606 0.872511 11.2001 0.530411C10.7943 0.188301 10.2807 0.000671387 9.74994 0.000671387C9.21914 0.000671387 8.70554 0.188301 8.29974 0.530411C7.8939 0.872511 7.6221 1.34707 7.53235 1.87019C7.44259 2.39331 7.54066 2.93132 7.80922 3.38913C8.07774 3.84694 8.49954 4.19507 8.99994 4.37199V5.24999C8.99994 5.4489 8.92094 5.63967 8.78024 5.78032C8.63964 5.92097 8.44884 5.99999 8.24994 5.99999H3.74994C3.55103 5.99999 3.36027 5.92097 3.21961 5.78032C3.07896 5.63967 2.99994 5.4489 2.99994 5.24999V4.37199ZM6.74994 11.75C6.74994 11.9489 6.67093 12.1397 6.53027 12.2803C6.38962 12.421 6.19886 12.5 5.99994 12.5C5.80103 12.5 5.61027 12.421 5.46961 12.2803C5.32896 12.1397 5.24994 11.9489 5.24994 11.75C5.24994 11.5511 5.32896 11.3603 5.46961 11.2197C5.61027 11.079 5.80103 11 5.99994 11C6.19886 11 6.38962 11.079 6.53027 11.2197C6.67093 11.3603 6.74994 11.5511 6.74994 11.75ZM9.74994 2.99999C9.94884 2.99999 10.1396 2.92097 10.2802 2.78032C10.4209 2.63967 10.4999 2.4489 10.4999 2.24999C10.4999 2.05107 10.4209 1.86031 10.2802 1.71966C10.1396 1.579 9.94884 1.49999 9.74994 1.49999C9.55104 1.49999 9.36024 1.579 9.21964 1.71966C9.07894 1.86031 8.99994 2.05107 8.99994 2.24999C8.99994 2.4489 9.07894 2.63967 9.21964 2.78032C9.36024 2.92097 9.55104 2.99999 9.74994 2.99999Z" fill="#24292F"/>
</svg>
