<svg width="34" height="35" viewBox="0 0 34 35" fill="none" xmlns="http://www.w3.org/2000/svg">
<rect x="0.5" y="1" width="33" height="33" rx="7.5" fill="white"/>
<path d="M17 9.25001C17.121 9.25001 17.241 9.25001 17.3602 9.25001C16.1826 10.3442 15.4257 11.8165 15.221 13.411C15.0163 15.0054 15.3768 16.6211 16.2398 17.9773C17.1028 19.3336 18.4138 20.3445 19.9448 20.8344C21.4759 21.3242 23.1302 21.2621 24.6202 20.6588C24.0471 22.038 23.1103 23.2356 21.9098 24.1241C20.7093 25.0125 19.2902 25.5585 17.8038 25.7036C16.3174 25.8488 14.8195 25.5877 13.4698 24.9483C12.1201 24.3089 10.9693 23.3151 10.1402 22.0729C9.31102 20.8307 8.83462 19.3868 8.76177 17.8951C8.68893 16.4034 9.02238 14.9199 9.72655 13.6028C10.4307 12.2858 11.4792 11.1846 12.7602 10.4167C14.0411 9.6488 15.5065 9.24304 17 9.24268V9.25001Z" stroke="#25262B" stroke-width="1.83333" stroke-linecap="round" stroke-linejoin="round"/>
<rect x="0.5" y="1" width="33" height="33" rx="7.5" stroke="#C1C2C5"/>
</svg>
