<svg width="25" height="26" viewBox="0 0 25 26" fill="none" xmlns="http://www.w3.org/2000/svg">
<path d="M8.41058 19.5935C8.41058 20.9138 7.34532 21.9845 6.03017 21.9845C4.71619 21.9845 3.65039 20.9138 3.65039 19.5935C3.65039 18.2714 4.71619 17.2009 6.03017 17.2009C7.34532 17.2009 8.41058 18.2713 8.41058 19.5935Z" fill="white"/>
<path d="M3.5 12.9576C3.5 13.2885 3.75769 13.5604 4.08654 13.5773C6.43948 13.6979 8.02196 14.5584 9.47946 16.0304C10.9117 17.4754 11.8228 19.5487 11.9792 21.4306C12.006 21.7521 12.2733 21.9999 12.5944 21.9999H14.8063C14.9757 21.9999 15.1378 21.93 15.2544 21.8065C15.3711 21.683 15.4321 21.5168 15.4234 21.3467C15.1085 15.1475 10.3261 10.4367 4.1493 10.1271C3.98024 10.1186 3.81523 10.1802 3.69255 10.2974C3.5699 10.4146 3.5 10.5772 3.5 10.7473V12.9576Z" fill="white"/>
<path d="M3.5 6.83396C3.5 7.16754 3.76187 7.44083 4.09356 7.45404C11.6695 7.75519 17.759 13.7962 18.0626 21.4038C18.0759 21.7366 18.3482 21.9999 18.6797 21.9999H20.882C21.0496 21.9999 21.21 21.9315 21.3264 21.8104C21.4429 21.6893 21.5053 21.5259 21.4997 21.3576C21.1781 11.7729 13.6823 4.31977 4.13897 4.00034C3.97158 3.99474 3.80915 4.05765 3.68873 4.17466C3.5683 4.29159 3.5 4.45269 3.5 4.62097V6.83396Z" fill="white"/>
</svg>
