<svg width="16" height="16" viewBox="0 0 16 16" fill="none" xmlns="http://www.w3.org/2000/svg">
<path fill-rule="evenodd" clip-rule="evenodd" d="M2.00156 2.72518C2.02876 2.31186 2.38588 1.99886 2.7992 2.02606C8.79023 2.42039 13.5793 7.20954 13.9737 13.2006C14.0009 13.6139 13.6879 13.971 13.2746 13.9982C12.8612 14.0254 12.5041 13.7124 12.4769 13.2991C12.132 8.05887 7.94091 3.86774 2.70068 3.52282C2.28736 3.49562 1.97435 3.1385 2.00156 2.72518ZM1.99994 12.9998C1.99994 12.4475 2.44766 11.9998 2.99994 11.9998C3.55222 11.9998 3.99994 12.4475 3.99994 12.9998C3.99994 13.552 3.55222 13.9998 2.99994 13.9998C2.44766 13.9998 1.99994 13.552 1.99994 12.9998ZM2.83901 7.04957C2.42773 7.00038 2.05445 7.29392 2.00526 7.7052C1.95607 8.11649 2.24961 8.48977 2.66089 8.53896C5.16953 8.83897 7.16071 10.8302 7.46072 13.3388C7.50991 13.7501 7.88319 14.0436 8.29447 13.9944C8.70576 13.9452 8.99929 13.5719 8.95011 13.1607C8.5679 9.96475 6.03492 7.43178 2.83901 7.04957Z" fill="#24292F"/>
</svg>
